<?xml version="1.0" encoding="utf-8"?>
<!-- Generator: Adobe Illustrator 24.1.1, SVG Export Plug-In . SVG Version: 6.00 Build 0)  -->
<svg version="1.1" id="Layer_1" xmlns="http://www.w3.org/2000/svg" xmlns:xlink="http://www.w3.org/1999/xlink" x="0px" y="0px"
	 viewBox="0 0 140 25" width="140" height="25" xml:space="preserve" fill="#ffffff">
<path d="M0,22.27c3.37,0.19,6.4-0.67,9.22-2.74c-2.89-0.28-4.84-1.68-5.95-4.41c0.94,0,1.77,0,2.6,0c0.01-0.04,0.03-0.09,0.04-0.13
	c-3.04-0.97-4.71-2.99-4.9-6.19c0.91,0.25,1.76,0.49,2.61,0.72c0.03-0.05,0.05-0.09,0.08-0.14c-2.69-2.28-3.34-5-1.8-8.32
	C5.44,5.1,9.8,7.31,15.08,7.66c0-0.7-0.04-1.35,0.01-2c0.23-2.89,2.69-5.32,5.57-5.62c2.02-0.22,3.73,0.41,5.25,1.71
	c0.14,0.12,0.42,0.18,0.59,0.12c1.21-0.39,2.4-0.82,3.61-1.24c-0.44,1.3-1.32,2.34-2.52,3.15c0.03,0.05,0.05,0.11,0.08,0.16
	c1.07-0.29,2.14-0.57,3.28-0.88c-0.61,0.96-1.34,1.79-2.2,2.46c-0.6,0.46-0.79,0.94-0.82,1.69c-0.2,6.32-2.91,11.32-8.16,14.85
	c-3.58,2.41-7.59,3.25-11.88,2.85c-2.74-0.26-5.29-1.08-7.65-2.49C0.15,22.37,0.08,22.32,0,22.27z"/>
<path d="M41.58,20.94V7.6h-4.54V5.24H48.9V7.6h-4.54v13.34H41.58z M52.52,20.94L49.4,9.16h2.78l1.42,6.12
	c0.13,0.56,0.24,1.12,0.32,1.68c0.09,0.56,0.19,1.13,0.3,1.7h0.1c0.11-0.58,0.23-1.14,0.35-1.7c0.12-0.56,0.25-1.12,0.4-1.68
	l1.54-6.12h2.52l1.56,6.12c0.14,0.56,0.28,1.12,0.41,1.68c0.13,0.56,0.26,1.13,0.38,1.7h0.1c0.11-0.58,0.22-1.14,0.31-1.7
	c0.1-0.56,0.2-1.12,0.31-1.68l1.42-6.12h2.59l-3,11.78h-3.29l-1.37-5.5c-0.13-0.56-0.25-1.12-0.36-1.67
	c-0.11-0.55-0.23-1.14-0.36-1.76h-0.1c-0.11,0.62-0.22,1.22-0.34,1.78s-0.23,1.12-0.36,1.68l-1.34,5.47H52.52z M69.92,7.09
	c-0.5,0-0.9-0.14-1.22-0.43C68.38,6.37,68.22,6,68.22,5.53c0-0.46,0.16-0.84,0.48-1.14c0.32-0.3,0.73-0.44,1.22-0.44
	c0.5,0,0.9,0.15,1.22,0.44c0.32,0.3,0.48,0.68,0.48,1.14c0,0.46-0.16,0.84-0.48,1.13C70.82,6.95,70.42,7.09,69.92,7.09z
	 M68.53,20.94V9.16h2.76v11.78H68.53z M78.97,21.23c-0.69,0-1.27-0.1-1.74-0.31c-0.47-0.21-0.86-0.5-1.15-0.88
	c-0.3-0.38-0.51-0.82-0.65-1.34c-0.14-0.52-0.2-1.1-0.2-1.74v-5.62h-1.68V9.28l1.82-0.12l0.34-3.22h2.3v3.22h3v2.18h-3v5.62
	c0,1.38,0.55,2.06,1.66,2.06c0.21,0,0.42-0.02,0.64-0.07c0.22-0.05,0.41-0.11,0.59-0.19l0.48,2.04c-0.32,0.11-0.68,0.21-1.09,0.3
	C79.87,21.18,79.43,21.23,78.97,21.23z M87.15,21.23c-0.69,0-1.27-0.1-1.74-0.31c-0.47-0.21-0.86-0.5-1.15-0.88
	c-0.3-0.38-0.51-0.82-0.65-1.34c-0.14-0.52-0.2-1.1-0.2-1.74v-5.62h-1.68V9.28l1.82-0.12l0.34-3.22h2.3v3.22h3v2.18h-3v5.62
	c0,1.38,0.55,2.06,1.66,2.06c0.21,0,0.42-0.02,0.64-0.07c0.22-0.05,0.41-0.11,0.59-0.19l0.48,2.04c-0.32,0.11-0.68,0.21-1.09,0.3
	C88.05,21.18,87.62,21.23,87.15,21.23z M96.32,21.23c-0.82,0-1.58-0.14-2.28-0.42c-0.7-0.28-1.32-0.68-1.85-1.21
	c-0.53-0.53-0.94-1.17-1.24-1.93c-0.3-0.76-0.44-1.63-0.44-2.6c0-0.96,0.15-1.82,0.46-2.59c0.3-0.77,0.71-1.42,1.21-1.94
	s1.08-0.94,1.74-1.22c0.66-0.29,1.33-0.43,2.02-0.43c0.8,0,1.5,0.14,2.11,0.41c0.61,0.27,1.12,0.66,1.52,1.15
	c0.41,0.5,0.72,1.09,0.92,1.78s0.31,1.44,0.31,2.26c0,0.27-0.01,0.53-0.04,0.77c-0.02,0.24-0.05,0.43-0.08,0.58H93.2
	c0.13,1.06,0.5,1.87,1.12,2.44c0.62,0.57,1.4,0.85,2.36,0.85c0.51,0,0.99-0.08,1.43-0.23c0.44-0.15,0.88-0.36,1.31-0.64l0.94,1.73
	c-0.56,0.37-1.18,0.67-1.87,0.91C97.79,21.11,97.07,21.23,96.32,21.23z M93.18,13.93h5.23c0-0.91-0.2-1.63-0.59-2.15
	s-1-0.78-1.81-0.78c-0.7,0-1.32,0.25-1.85,0.74C93.63,12.24,93.3,12.97,93.18,13.93z M103.45,20.94V9.16h2.28l0.19,2.09h0.1
	c0.42-0.77,0.92-1.36,1.51-1.76c0.59-0.41,1.2-0.61,1.82-0.61c0.56,0,1.01,0.08,1.34,0.24l-0.48,2.4c-0.21-0.06-0.4-0.11-0.58-0.14
	c-0.18-0.03-0.39-0.05-0.65-0.05c-0.46,0-0.95,0.18-1.46,0.54c-0.51,0.36-0.95,0.99-1.32,1.88v7.2H103.45z M110.22,20.94l5.11-15.7
	h3.26l5.11,15.7h-2.93l-1.22-4.25h-5.28l-1.22,4.25H110.22z M115.47,12.59l-0.55,1.92h4.01l-0.55-1.92
	c-0.26-0.83-0.5-1.69-0.73-2.57s-0.46-1.75-0.68-2.62h-0.1c-0.22,0.88-0.45,1.76-0.67,2.63C115.97,10.91,115.73,11.76,115.47,12.59z
	 M127.28,20.94V7.6h-4.54V5.24h11.86V7.6h-4.54v13.34H127.28z M137.22,20.94V5.24H140v15.7H137.22z"/>
</svg>
